<?xml version="1.0" encoding="UTF-8"?>
<svg id="Camada_2" data-name="Camada 2" xmlns="http://www.w3.org/2000/svg" xmlns:xlink="http://www.w3.org/1999/xlink" viewBox="0 0 445.04 105.42">
  <defs>
    <style>
      .cls-1 {
        fill: #fff;
      }

      .cls-2 {
        fill: #09ff50;
      }

      .cls-3 {
        fill: none;
      }

      .cls-4 {
        isolation: isolate;
      }

      .cls-5 {
        fill: #fcfdfe;
      }

      .cls-6 {
        clip-path: url(#clippath);
      }
    </style>
    <clipPath id="clippath">
      <path class="cls-3" d="M53.41,0h49.91v89.22h-49.91V0ZM64.75,11.62v69.19h7.82V11.62h-7.82Z"/>
    </clipPath>
  </defs>
  <g id="svg2130">
    <path id="rect2317" class="cls-5" d="M22.95,1.1h66.08c12.66,0,22.95,10.28,22.95,22.95v38.12c0,12.66-10.28,22.94-22.94,22.94H22.94c-12.66,0-22.94-10.28-22.94-22.94V24.04C0,11.38,10.28,1.1,22.95,1.1Z"/>
    <rect id="rect3536" class="cls-1" x=".19" y="90.28" width="15.14" height="15.14" rx="2.41" ry="2.41"/>
    <path id="path3590" class="cls-1" d="M94.96,96.07c.98,3.26-.85,6.69-4.1,7.69s-6.7-.82-7.71-4.07.79-6.7,4.03-7.73c3.24-1.03,6.71.76,7.75,3.99"/>
    <path id="path3590-1" class="cls-1" d="M110.29,96.07c.98,3.26-.85,6.69-4.1,7.69s-6.7-.82-7.71-4.07c-1.01-3.25.79-6.7,4.03-7.73,3.24-1.03,6.71.76,7.75,3.99"/>
    <g class="cls-4">
      <path class="cls-2" d="M141.65,59.71v21.31h-11.67V4.33h11.67v.05c.69-.03,1.39-.05,2.08-.05,7.26,0,13.44,2.71,18.54,8.13,5.11,5.42,7.66,11.95,7.66,19.59s-2.55,14.22-7.66,19.64c-1.29,1.35-2.62,2.54-4.01,3.54l13.91,25.99h-12.5l-11.56-21.77c-1.42.24-2.88.36-4.38.36-.7,0-1.39-.03-2.08-.1ZM141.65,15.85v32.4c.66.1,1.35.16,2.08.16,4.27,0,7.91-1.6,10.91-4.79,3-3.19,4.51-7.05,4.51-11.56s-1.5-8.36-4.51-11.54c-3-3.18-6.64-4.77-10.91-4.77-.7,0-1.39.04-2.08.1Z"/>
      <path class="cls-2" d="M207.85,4.44h10v51.67h6.67v11.67h-6.67v13.33h-11.67v-13.33h-26.51l-.05-11.04,28.23-52.3ZM191.18,56.11h15l-.05-27.87-14.95,27.87Z"/>
    </g>
    <path id="path11975" class="cls-2" d="M298.71,4.23v76.89h11.67v-37.66l13.23,35.68,13.18-35.16v37.24h11.72V4.23h-9.74l-15.16,41.26-15.16-41.26h-9.74Z"/>
    <path id="path11973" class="cls-2" d="M232.61,4.07l20.11,47.87v29.17h13.39v-29.17l20.11-47.87h-12.35l-14.43,34.17-14.48-34.17h-12.35Z"/>
    <path id="path11971" class="cls-2" d="M372.68,21.77h-11.67v59.34h11.67V21.77Z"/>
    <path id="path11969" class="cls-2" d="M361.01,4.02v13.1h11.67V4.02h-11.67Z"/>
    <path id="path11967" class="cls-2" d="M386.54,3.92l21.25,37.19-22.61,40.01h14.69l15.42-26.67,15.78,26.67,13.96-.05-22.24-39.95,21.62-37.19h-14.64l-14.48,25.52-14.79-25.52h-13.96Z"/>
    <g class="cls-4">
      <path class="cls-5" d="M361.11,95.93c3.83-1.07,6.87-2.91,8.72-6.19.2.26.57.57.8.75-2.03,3.46-5.39,5.48-9.92,6.67-.03.12-.12.26-.24.3l-.63-1.05.18-.29v-11.1l1.55.08c-.01.17-.15.3-.45.33v10.5Z"/>
      <path class="cls-5" d="M384.64,85.49c-.06.08-.15.12-.29.12-.04,0-.09,0-.15-.02-1.16,1.17-2.83,2.55-4.29,3.6.12.05.3.14.36.17-.03.09-.17.18-.33.2v8.09h-1.1v-7.74c-1.6,1.13-3.67,2.35-5.74,3.36-.15-.24-.42-.62-.63-.83,4.11-1.9,8.62-5.12,11.04-7.79l1.13.84Z"/>
      <path class="cls-5" d="M387.05,94.18c3.31.38,7.18,1.24,9.55,2.17l-.45,1.05c-2.14-.89-6.14-1.84-9.46-2.23l.36-.99ZM388.26,89.57c2.39.24,5.41.81,7.27,1.39l-.35,1.05c-1.76-.6-4.8-1.17-7.24-1.42l.32-1.02ZM388.32,84.92c2.56.27,5.84.87,7.92,1.61l-.44,1.05c-2.08-.78-5.27-1.37-7.83-1.66l.35-1.01Z"/>
      <path class="cls-5" d="M400.47,88.56c.45.92.95,2.36,1.13,3.24l-.84.23c-.18-.87-.65-2.24-1.1-3.21l.81-.26ZM409.46,88.67c-.03.14-.18.17-.32.15-1.17,4.4-3.39,7.09-7.03,8.57-.12-.18-.39-.53-.59-.69,3.6-1.42,5.66-3.89,6.76-8.37l1.17.35ZM404.13,87.84c.32,1.01.6,2.46.71,3.42l-.89.17c-.09-.96-.38-2.35-.71-3.39l.89-.2Z"/>
      <path class="cls-5" d="M422.51,87.39c-.06.08-.14.15-.23.21-1.58,4.88-4.05,8.01-8.21,10.12-.18-.26-.47-.6-.77-.83,3.95-1.91,6.39-4.92,7.64-8.92h-5.38c-.87,1.36-2.03,2.67-3.37,3.72-.21-.21-.56-.5-.86-.69,2.05-1.58,3.78-3.89,4.8-6.54l1.43.41c-.06.15-.24.2-.44.2-.3.66-.62,1.29-.96,1.9h5.3l.18-.09.86.51Z"/>
      <path class="cls-5" d="M434.13,86.08c-.03.08-.11.14-.2.17-.81,1.91-1.78,3.57-3.01,5.18,1.64,1.31,4.11,3.55,5.51,5.11l-.92.8c-1.33-1.54-3.75-3.83-5.29-5.06-1.33,1.61-3.62,3.81-5.8,5.06-.17-.23-.53-.6-.78-.81,4.17-2.29,7.47-6.57,8.83-9.83h-7.39v-1.02h7.98l.2-.08.87.5Z"/>
    </g>
    <rect id="rect21833" class="cls-5" x="129.98" y="86.26" width="228.52" height="2.9"/>
    <rect id="rect9183-0" class="cls-2" x="26.44" y="30.49" width="37.69" height="8.98"/>
    <rect id="rect9185-6" class="cls-2" x="26.44" y="46.73" width="37.69" height="8.98"/>
    <g class="cls-6">
      <path id="path546" class="cls-2" d="M89.14,44.61c0,12.58-5.5,22.72-16.49,30.44l-5.07-6.34c8.45-5.6,12.89-12.88,13.32-21.84v-4.52c-.42-8.96-4.86-16.24-13.32-21.84l5.07-6.34c10.99,7.71,16.49,17.86,16.49,30.44h0Z"/>
    </g>
  </g>
</svg>