<?xml version="1.0" encoding="UTF-8"?>
<svg id="Camada_2" data-name="Camada 2" xmlns="http://www.w3.org/2000/svg" viewBox="0 0 228.66 104.32">
  <defs>
    <style>
      .cls-1 {
        fill: #fff;
      }

      .cls-2 {
        fill: #fcfdfe;
      }
    </style>
  </defs>
  <g id="Camada_1-2" data-name="Camada 1">
    <g id="rect2317">
      <path class="cls-2" d="M89.04,7c8.79,0,15.94,7.15,15.94,15.95v38.11c0,8.79-7.15,15.95-15.94,15.95H22.94c-8.79,0-15.94-7.15-15.94-15.95V22.95c0-8.79,7.15-15.95,15.94-15.95h66.1M89.04,0H22.94C10.27,0,0,10.27,0,22.95v38.11c0,12.67,10.27,22.95,22.94,22.95h66.1c12.67,0,22.94-10.27,22.94-22.95V22.95c0-12.67-10.27-22.95-22.94-22.95h0Z"/>
    </g>
    <rect id="rect3536" class="cls-1" x=".19" y="89.19" width="15.14" height="15.14" rx="2.41" ry="2.41"/>
    <g id="g9193">
      <path id="path3590" class="cls-1" d="M94.96,94.97c.98,3.26-.85,6.69-4.1,7.69s-6.7-.82-7.71-4.07.79-6.7,4.03-7.73c3.24-1.03,6.71.76,7.75,3.99"/>
      <path id="path3590-1" class="cls-1" d="M110.29,94.97c.98,3.26-.85,6.69-4.1,7.69s-6.7-.82-7.71-4.07c-1.01-3.25.79-6.7,4.03-7.73,3.24-1.03,6.71.76,7.75,3.99"/>
    </g>
    <g>
      <circle class="cls-1" cx="83.39" cy="38.15" r="13.51"/>
      <path class="cls-1" d="M104.38,68.56c0,8.26,1.11,14.96-20.99,14.96-23.48,0-20.99-6.7-20.99-14.96s9.4-14.96,20.99-14.96,20.99,6.7,20.99,14.96Z"/>
    </g>
    <rect class="cls-1" x="15.33" y="21.04" width="46.99" height="4.57" rx="2.29" ry="2.29"/>
    <rect class="cls-1" x="15.33" y="29.65" width="46.99" height="4.57" rx="2.29" ry="2.29"/>
    <rect class="cls-1" x="15.33" y="38.26" width="46.99" height="4.57" rx="2.29" ry="2.29"/>
    <rect class="cls-1" x="15.33" y="46.87" width="31.41" height="4.57" rx="2.29" ry="2.29"/>
    <g>
      <path class="cls-1" d="M125.94,55.47l10.47-24.14h.25l10.47,24.14h-5.3l-6.69-16.97,3.31-2.27-8.01,19.25h-4.51ZM133.1,47.08h6.97l1.61,3.85h-10l1.42-3.85Z"/>
      <path class="cls-1" d="M155.57,32.25c2.42,0,4.34.49,5.77,1.47,1.43.98,2.15,2.43,2.15,4.37,0,1.43-.35,2.62-1.06,3.58-.71.96-1.66,1.67-2.87,2.15-1.21.47-2.59.71-4.15.71l-.73-2.46c1.91,0,3.61.26,5.1.79,1.48.53,2.66,1.28,3.52,2.26s1.29,2.15,1.29,3.52c0,1.26-.23,2.33-.68,3.2-.45.87-1.06,1.58-1.83,2.11-.77.54-1.64.93-2.6,1.17-.97.24-1.97.36-3,.36h-7.73v-23.22h6.82ZM156.1,41.75c.9,0,1.57-.27,2-.82.43-.55.65-1.17.65-1.86,0-.8-.27-1.4-.8-1.8s-1.26-.6-2.16-.6h-2.46v5.08h2.78ZM156.26,51.21c.67,0,1.28-.09,1.83-.27s.98-.46,1.29-.85c.32-.39.47-.88.47-1.47,0-.67-.19-1.18-.57-1.53s-.87-.59-1.47-.73-1.23-.21-1.88-.21h-2.62v5.05h2.93Z"/>
      <path class="cls-1" d="M165.98,43.89c0-1.6.3-3.11.92-4.54.61-1.43,1.46-2.7,2.54-3.8,1.08-1.1,2.34-1.97,3.77-2.6,1.43-.63,2.97-.95,4.61-.95s3.14.32,4.57.95c1.43.63,2.7,1.5,3.8,2.6,1.1,1.1,1.97,2.37,2.59,3.8.62,1.43.93,2.94.93,4.54s-.31,3.18-.93,4.61c-.62,1.43-1.48,2.69-2.59,3.77-1.1,1.08-2.37,1.93-3.8,2.54-1.43.61-2.96.92-4.57.92s-3.18-.3-4.61-.92c-1.43-.61-2.69-1.46-3.77-2.54-1.08-1.08-1.93-2.34-2.54-3.77-.61-1.43-.92-2.97-.92-4.61ZM170.71,43.89c0,1.03.18,1.99.55,2.89s.88,1.68,1.55,2.37c.66.68,1.43,1.21,2.3,1.59.87.38,1.82.57,2.85.57s1.91-.19,2.76-.57,1.59-.91,2.22-1.59c.63-.68,1.12-1.47,1.48-2.37s.54-1.86.54-2.89-.18-2.03-.55-2.93c-.37-.9-.87-1.7-1.51-2.38-.64-.68-1.39-1.21-2.26-1.59s-1.8-.57-2.81-.57-1.95.19-2.81.57c-.86.38-1.62.91-2.27,1.59-.65.68-1.16,1.48-1.51,2.38-.36.9-.54,1.88-.54,2.93Z"/>
      <path class="cls-1" d="M196.61,46.89c0,.74.22,1.44.66,2.11.44.67,1.03,1.22,1.75,1.64.73.42,1.52.63,2.38.63.95,0,1.79-.21,2.52-.63.74-.42,1.32-.97,1.75-1.64.43-.67.65-1.38.65-2.11v-14.64h4.51v14.73c0,1.7-.42,3.21-1.26,4.53-.84,1.31-1.98,2.35-3.41,3.09-1.43.75-3.02,1.12-4.76,1.12s-3.3-.37-4.72-1.12c-1.42-.75-2.55-1.78-3.39-3.09-.84-1.31-1.26-2.82-1.26-4.53v-14.73h4.57v14.64Z"/>
      <path class="cls-1" d="M213.02,32.25h15.65v4.42h-5.65v18.8h-4.57v-18.8h-5.43v-4.42Z"/>
    </g>
  </g>
</svg>