<?xml version="1.0" encoding="UTF-8"?>
<svg id="Camada_2" data-name="Camada 2" xmlns="http://www.w3.org/2000/svg" viewBox="0 0 111.98 136.44">
  <defs>
    <style>
      .cls-1 {
        fill: #fff;
      }

      .cls-2 {
        fill: #fcfdfe;
      }
    </style>
  </defs>
  <g id="Camada_1-2" data-name="Camada 1">
    <g>
      <path class="cls-1" d="M0,136.16l11.42-26.31h.28l11.42,26.31h-5.78l-7.29-18.5,3.61-2.48-8.74,20.98H0ZM7.81,127.02h7.6l1.75,4.2H6.26l1.55-4.2Z"/>
      <path class="cls-1" d="M32.29,110.85c2.64,0,4.73.53,6.29,1.6,1.56,1.07,2.34,2.65,2.34,4.76,0,1.56-.38,2.86-1.15,3.9-.77,1.04-1.81,1.82-3.13,2.34-1.32.52-2.83.77-4.52.77l-.79-2.68c2.09,0,3.94.29,5.55.86,1.62.57,2.89,1.39,3.83,2.46s1.41,2.34,1.41,3.83c0,1.38-.25,2.54-.74,3.49-.49.95-1.16,1.72-1.99,2.3-.84.58-1.78,1.01-2.84,1.27-1.05.26-2.14.4-3.27.4h-8.43v-25.31h7.43ZM32.88,121.2c.99,0,1.71-.3,2.18-.89.47-.6.71-1.27.71-2.03,0-.87-.29-1.52-.88-1.96s-1.37-.65-2.36-.65h-2.68v5.54h3.03ZM33.05,131.52c.73,0,1.4-.1,1.99-.29s1.07-.5,1.41-.93c.34-.42.52-.96.52-1.6,0-.73-.21-1.29-.62-1.67s-.95-.64-1.6-.79-1.34-.22-2.05-.22h-2.85v5.5h3.2Z"/>
      <path class="cls-1" d="M43.64,123.54c0-1.74.33-3.39,1-4.95.66-1.56,1.59-2.94,2.77-4.14,1.18-1.2,2.55-2.15,4.11-2.84,1.56-.69,3.23-1.03,5.02-1.03s3.43.34,4.99,1.03c1.56.69,2.94,1.63,4.14,2.84,1.2,1.2,2.14,2.59,2.82,4.14.68,1.56,1.02,3.21,1.02,4.95s-.34,3.46-1.02,5.02c-.68,1.56-1.62,2.93-2.82,4.11-1.2,1.18-2.58,2.1-4.14,2.77-1.56.67-3.22,1-4.99,1s-3.46-.33-5.02-1c-1.56-.66-2.93-1.59-4.11-2.77-1.18-1.18-2.1-2.55-2.77-4.11-.67-1.56-1-3.23-1-5.02ZM48.8,123.54c0,1.12.2,2.17.6,3.15s.96,1.83,1.69,2.58c.72.75,1.56,1.32,2.51,1.74.95.41,1.99.62,3.11.62s2.08-.21,3.01-.62,1.74-.99,2.42-1.74c.69-.74,1.23-1.6,1.62-2.58s.58-2.02.58-3.15-.2-2.21-.6-3.2c-.4-.99-.95-1.85-1.65-2.6-.7-.74-1.52-1.32-2.46-1.74s-1.96-.62-3.06-.62-2.12.21-3.06.62c-.94.41-1.77.99-2.48,1.74-.71.75-1.26,1.61-1.65,2.6-.39.99-.58,2.05-.58,3.2Z"/>
      <path class="cls-1" d="M77.04,126.81c0,.8.24,1.57.72,2.3.48.73,1.12,1.33,1.91,1.79.79.46,1.66.69,2.6.69,1.03,0,1.95-.23,2.75-.69.8-.46,1.44-1.05,1.91-1.79.47-.73.7-1.5.7-2.3v-15.96h4.92v16.06c0,1.86-.46,3.5-1.38,4.94-.92,1.43-2.16,2.56-3.72,3.37-1.56.81-3.29,1.22-5.19,1.22s-3.59-.41-5.14-1.22c-1.55-.81-2.78-1.94-3.7-3.37-.92-1.43-1.38-3.08-1.38-4.94v-16.06h4.99v15.96Z"/>
      <path class="cls-1" d="M94.92,110.85h17.06v4.81h-6.16v20.5h-4.99v-20.5h-5.92v-4.81Z"/>
    </g>
    <g>
      <rect id="rect3536" class="cls-1" x=".19" y="89.19" width="15.14" height="15.14" rx="2.41" ry="2.41"/>
      <g id="g9193">
        <path id="path3590" class="cls-1" d="M94.96,94.97c.98,3.26-.85,6.69-4.1,7.69s-6.7-.82-7.71-4.07c-1.01-3.25.79-6.7,4.03-7.73,3.24-1.03,6.71.76,7.75,3.99"/>
        <path id="path3590-1" class="cls-1" d="M110.29,94.97c.98,3.26-.85,6.69-4.1,7.69s-6.7-.82-7.71-4.07c-1.01-3.25.79-6.7,4.03-7.73,3.24-1.03,6.71.76,7.75,3.99"/>
      </g>
      <g id="rect2317">
        <path class="cls-2" d="M89.04,7c8.79,0,15.94,7.15,15.94,15.95v38.11c0,8.79-7.15,15.95-15.94,15.95H22.94c-8.79,0-15.94-7.15-15.94-15.95V22.95c0-8.79,7.15-15.95,15.94-15.95h66.1M89.04,0H22.94C10.27,0,0,10.27,0,22.95v38.11c0,12.67,10.27,22.95,22.94,22.95h66.1c12.67,0,22.94-10.27,22.94-22.95V22.95c0-12.67-10.27-22.95-22.94-22.95h0Z"/>
      </g>
      <g>
        <circle class="cls-1" cx="83.39" cy="38.15" r="13.51"/>
        <path class="cls-1" d="M104.38,68.56c0,8.26,1.11,14.96-20.99,14.96-23.48,0-20.99-6.7-20.99-14.96s9.4-14.96,20.99-14.96,20.99,6.7,20.99,14.96Z"/>
      </g>
      <rect class="cls-1" x="15.33" y="21.04" width="46.99" height="4.57" rx="2.29" ry="2.29"/>
      <rect class="cls-1" x="15.33" y="29.65" width="46.99" height="4.57" rx="2.29" ry="2.29"/>
      <rect class="cls-1" x="15.33" y="38.26" width="46.99" height="4.57" rx="2.29" ry="2.29"/>
      <rect class="cls-1" x="15.33" y="46.87" width="31.41" height="4.57" rx="2.29" ry="2.29"/>
    </g>
  </g>
</svg>