<?xml version="1.0" encoding="UTF-8"?>
<svg id="Camada_2" data-name="Camada 2" xmlns="http://www.w3.org/2000/svg" viewBox="0 0 192.34 104.32">
  <defs>
    <style>
      .cls-1 {
        fill: #3AADFF;
      }

      .cls-2 {
        fill: none;
        stroke: #3AADFF;
        stroke-miterlimit: 10;
        stroke-width: 2px;
      }

      .cls-3 {
        fill: #3AADFF;
      }
    </style>
  </defs>
  <g id="Camada_1-2" data-name="Camada 1">
    <g id="rect2317">
      <path class="cls-3" d="M89.04,7c8.79,0,15.94,7.15,15.94,15.95v38.11c0,8.79-7.15,15.95-15.94,15.95H22.94c-8.79,0-15.94-7.15-15.94-15.95V22.95c0-8.79,7.15-15.95,15.94-15.95h66.1M89.04,0H22.94C10.27,0,0,10.27,0,22.95v38.11c0,12.67,10.27,22.95,22.94,22.95h66.1c12.67,0,22.94-10.27,22.94-22.95V22.95c0-12.67-10.27-22.95-22.94-22.95h0Z"/>
    </g>
    <rect id="rect3536" class="cls-1" x=".19" y="89.19" width="15.14" height="15.14" rx="2.41" ry="2.41"/>
    <g id="g9193">
      <path id="path3590" class="cls-1" d="M94.96,94.97c.98,3.26-.85,6.69-4.1,7.69s-6.7-.82-7.71-4.07.79-6.7,4.03-7.73c3.24-1.03,6.71.76,7.75,3.99"/>
      <path id="path3590-1" class="cls-1" d="M110.29,94.97c.98,3.26-.85,6.69-4.1,7.69s-6.7-.82-7.71-4.07c-1.01-3.25.79-6.7,4.03-7.73,3.24-1.03,6.71.76,7.75,3.99"/>
    </g>
    <g>
      <path class="cls-1" d="M77.01,69.04c0,8.26,1.11,14.96-20.99,14.96-23.48,0-20.99-6.7-20.99-14.96s9.4-14.96,20.99-14.96,20.99,6.7,20.99,14.96Z"/>
      <rect class="cls-1" x="39.36" y="25.61" width="33.25" height="27.02" rx="6.57" ry="6.57"/>
      <polyline class="cls-2" points="39.36 4.87 47.4 28.14 53.43 12.14"/>
    </g>
    <g>
      <path class="cls-1" d="M126.02,32.68h5.36l4.95,14.58-.73-.32,4.32-10.76,2.11,6.28-6.69,14.36-9.34-24.14ZM137.67,32.68h4.54l5.71,14.1-.82-.13,4.26-13.98h4.92l-8.96,24.07-9.65-24.07Z"/>
      <path class="cls-1" d="M158.52,32.52h4.57v23.22h-4.57v-23.22Z"/>
      <path class="cls-1" d="M171.96,40.79l-.13,1.17.69-.88,7.57-8.55h5.93l-9.59,10.41,9.62,12.81h-5.81l-7.16-9.91-1.14,1.14v8.77h-4.64v-23.22h4.64v8.27Z"/>
      <path class="cls-1" d="M187.77,32.52h4.57v23.22h-4.57v-23.22Z"/>
    </g>
  </g>
</svg>
