<?xml version="1.0" encoding="UTF-8"?>
<svg id="Camada_2" data-name="Camada 2" xmlns="http://www.w3.org/2000/svg" viewBox="0 0 111.98 136.81">
  <defs>
    <style>
      .cls-1 {
        fill: #fff;
      }

      .cls-2 {
        fill: none;
        stroke: #fff;
        stroke-miterlimit: 10;
        stroke-width: 2px;
      }

      .cls-3 {
        fill: #fcfdfe;
      }
    </style>
  </defs>
  <g id="Camada_1-2" data-name="Camada 1">
    <g>
      <path class="cls-1" d="M19.04,111.11h5.71l5.27,15.52-.77-.34,4.6-11.45,2.25,6.68-7.12,15.28-9.94-25.69ZM31.44,111.11h4.84l6.08,15.01-.87-.13,4.53-14.88h5.24l-9.54,25.63-10.28-25.63Z"/>
      <path class="cls-1" d="M53.64,110.95h4.87v24.72h-4.87v-24.72Z"/>
      <path class="cls-1" d="M67.95,119.75l-.13,1.24.74-.94,8.06-9.1h6.31l-10.21,11.08,10.24,13.64h-6.18l-7.62-10.55-1.21,1.21v9.34h-4.94v-24.72h4.94v8.8Z"/>
      <path class="cls-1" d="M84.78,110.95h4.87v24.72h-4.87v-24.72Z"/>
    </g>
    <g>
      <g id="rect2317">
        <path class="cls-3" d="M89.04,7c8.79,0,15.94,7.15,15.94,15.95v38.11c0,8.79-7.15,15.95-15.94,15.95H22.94c-8.79,0-15.94-7.15-15.94-15.95V22.95c0-8.79,7.15-15.95,15.94-15.95h66.1M89.04,0H22.94C10.27,0,0,10.27,0,22.95v38.11c0,12.67,10.27,22.95,22.94,22.95h66.1c12.67,0,22.94-10.27,22.94-22.95V22.95c0-12.67-10.27-22.95-22.94-22.95h0Z"/>
      </g>
      <rect id="rect3536" class="cls-1" x=".19" y="89.19" width="15.14" height="15.14" rx="2.41" ry="2.41"/>
      <g id="g9193">
        <path id="path3590" class="cls-1" d="M94.96,94.97c.98,3.26-.85,6.69-4.1,7.69s-6.7-.82-7.71-4.07.79-6.7,4.03-7.73c3.24-1.03,6.71.76,7.75,3.99"/>
        <path id="path3590-1" class="cls-1" d="M110.29,94.97c.98,3.26-.85,6.69-4.1,7.69s-6.7-.82-7.71-4.07c-1.01-3.25.79-6.7,4.03-7.73,3.24-1.03,6.71.76,7.75,3.99"/>
      </g>
      <g>
        <path class="cls-1" d="M77.01,69.04c0,8.26,1.11,14.96-20.99,14.96-23.48,0-20.99-6.7-20.99-14.96s9.4-14.96,20.99-14.96,20.99,6.7,20.99,14.96Z"/>
        <rect class="cls-1" x="39.36" y="25.61" width="33.25" height="27.02" rx="6.57" ry="6.57"/>
        <polyline class="cls-2" points="39.36 4.87 47.4 28.14 53.43 12.14"/>
      </g>
    </g>
  </g>
</svg>