<?xml version="1.0" encoding="UTF-8"?>
<svg id="Camada_2" data-name="Camada 2" xmlns="http://www.w3.org/2000/svg" viewBox="0 0 111.98 136.31">
  <defs>
    <style>
      .cls-1 {
        fill: #8C3AFF;
      }

      .cls-2 {
        fill: #8C3AFF;
      }
    </style>
  </defs>
  <g id="Camada_1-2" data-name="Camada 1">
    <g>
      <path class="cls-1" d="M.61,112.93h4.56v23.12H.61v-23.12Z"/>
      <path class="cls-1" d="M9.38,136.06v-24.06h.03l12.85,18.22-1.95-.44,12.82-17.78h.06v24.06h-4.56v-13.79l.28,2.36-7.82,11.12h-.06l-8.04-11.12.79-2.17v13.6h-4.4Z"/>
      <path class="cls-1" d="M34.79,136.06l10.43-24.03h.25l10.43,24.03h-5.28l-6.66-16.9,3.3-2.26-7.98,19.16h-4.49ZM41.92,127.7h6.94l1.6,3.83h-9.96l1.41-3.83Z"/>
      <path class="cls-1" d="M75.32,133.73c-.27.29-.7.59-1.29.9-.59.3-1.26.58-2.03.83-.76.25-1.54.46-2.34.61s-1.55.24-2.26.24c-1.88,0-3.58-.28-5.09-.83-1.51-.55-2.8-1.33-3.86-2.32-1.07-.99-1.88-2.17-2.45-3.53-.57-1.36-.85-2.85-.85-4.46,0-2.11.32-3.95.96-5.51.64-1.56,1.51-2.86,2.61-3.9,1.1-1.04,2.37-1.81,3.8-2.31,1.43-.5,2.94-.75,4.51-.75,1.49,0,2.85.16,4.08.49,1.24.32,2.28.73,3.14,1.21l-1.48,4.24c-.38-.21-.88-.42-1.51-.63-.63-.21-1.27-.38-1.92-.52s-1.23-.2-1.73-.2c-1.26,0-2.37.16-3.33.47s-1.77.79-2.43,1.41c-.66.63-1.16,1.41-1.49,2.34-.34.93-.5,2.02-.5,3.25,0,1.09.19,2.07.57,2.94.38.87.91,1.61,1.59,2.22.68.61,1.49,1.07,2.42,1.38.93.31,1.96.47,3.09.47.65,0,1.25-.05,1.79-.14.54-.09,1-.25,1.38-.46v-2.8h-3.99v-4.4h8.61v9.77Z"/>
      <path class="cls-1" d="M78.74,112.93h15.77v4.4h-11.22v4.93h9.93v4.4h-9.93v5h11.65v4.4h-16.21v-23.12Z"/>
      <path class="cls-1" d="M110.25,118.53c-.88-.48-1.78-.88-2.69-1.19s-1.76-.47-2.56-.47c-.98,0-1.76.2-2.32.6-.57.4-.85,1-.85,1.79,0,.55.21,1.03.64,1.46.43.43.98.81,1.66,1.15.68.34,1.39.64,2.12.91.67.25,1.34.55,1.99.9.66.35,1.25.77,1.77,1.29.52.51.94,1.15,1.26,1.92.31.76.47,1.7.47,2.81,0,1.17-.3,2.26-.91,3.27-.61,1.01-1.5,1.82-2.67,2.43-1.17.62-2.62.93-4.34.93-.88,0-1.77-.09-2.69-.27-.91-.18-1.81-.45-2.69-.82-.88-.37-1.73-.83-2.54-1.4l2.01-3.55c.54.4,1.14.75,1.78,1.05.64.3,1.28.54,1.93.71.65.17,1.25.25,1.79.25s1.09-.08,1.65-.24c.55-.16,1.02-.42,1.38-.8.37-.38.55-.9.55-1.57,0-.46-.15-.88-.46-1.26-.3-.38-.71-.72-1.23-1.04-.51-.31-1.07-.59-1.68-.82-.71-.27-1.45-.59-2.2-.94-.75-.36-1.46-.79-2.12-1.3-.66-.51-1.19-1.15-1.6-1.92-.41-.76-.61-1.7-.61-2.81,0-1.34.3-2.5.9-3.49.6-.98,1.44-1.76,2.53-2.34,1.09-.58,2.35-.9,3.77-.96,1.86,0,3.38.22,4.54.66,1.16.44,2.2.96,3.13,1.57l-1.73,3.49Z"/>
    </g>
    <g>
      <rect id="rect3536" class="cls-1" x=".19" y="89.19" width="15.14" height="15.14" rx="2.41" ry="2.41"/>
      <g id="g9193">
        <path id="path3590" class="cls-1" d="M94.96,94.97c.98,3.26-.85,6.69-4.1,7.69s-6.7-.82-7.71-4.07c-1.01-3.25.79-6.7,4.03-7.73,3.24-1.03,6.71.76,7.75,3.99"/>
        <path id="path3590-1" class="cls-1" d="M110.29,94.97c.98,3.26-.85,6.69-4.1,7.69s-6.7-.82-7.71-4.07c-1.01-3.25.79-6.7,4.03-7.73,3.24-1.03,6.71.76,7.75,3.99"/>
      </g>
      <g id="rect2317">
        <path class="cls-2" d="M89.04,7c8.79,0,15.94,7.15,15.94,15.95v38.11c0,8.79-7.15,15.95-15.94,15.95H22.94c-8.79,0-15.94-7.15-15.94-15.95V22.95c0-8.79,7.15-15.95,15.94-15.95h66.1M89.04,0H22.94C10.27,0,0,10.27,0,22.95v38.11c0,12.67,10.27,22.95,22.94,22.95h66.1c12.67,0,22.94-10.27,22.94-22.95V22.95c0-12.67-10.27-22.95-22.94-22.95h0Z"/>
      </g>
      <g>
        <path class="cls-1" d="M40.39,35.23l-23.55,40.8c-.99,1.71.25,3.84,2.22,3.84h47.11c1.97,0,3.21-2.14,2.22-3.84l-23.55-40.8c-.99-1.71-3.45-1.71-4.44,0Z"/>
        <path class="cls-1" d="M67.15,35.23l-9.81,17,16.56,27.64h19.03c1.97,0,3.21-2.14,2.22-3.84l-23.55-40.8c-.99-1.71-3.45-1.71-4.44,0Z"/>
        <circle class="cls-2" cx="87.46" cy="24.14" r="6.85"/>
      </g>
    </g>
  </g>
</svg>
