<?xml version="1.0" encoding="UTF-8"?>
<svg id="Camada_2" data-name="Camada 2" xmlns="http://www.w3.org/2000/svg" viewBox="0 0 237.92 104.32">
  <defs>
    <style>
      .cls-1 {
        fill: #fff;
      }

      .cls-2 {
        fill: #fcfdfe;
      }
    </style>
  </defs>
  <g id="Camada_1-2" data-name="Camada 1">
    <g id="rect2317">
      <path class="cls-2" d="M89.04,7c8.79,0,15.94,7.15,15.94,15.95v38.11c0,8.79-7.15,15.95-15.94,15.95H22.94c-8.79,0-15.94-7.15-15.94-15.95V22.95c0-8.79,7.15-15.95,15.94-15.95h66.1M89.04,0H22.94C10.27,0,0,10.27,0,22.95v38.11c0,12.67,10.27,22.95,22.94,22.95h66.1c12.67,0,22.94-10.27,22.94-22.95V22.95c0-12.67-10.27-22.95-22.94-22.95h0Z"/>
    </g>
    <rect id="rect3536" class="cls-1" x=".19" y="89.19" width="15.14" height="15.14" rx="2.41" ry="2.41"/>
    <g id="g9193">
      <path id="path3590" class="cls-1" d="M94.96,94.97c.98,3.26-.85,6.69-4.1,7.69s-6.7-.82-7.71-4.07.79-6.7,4.03-7.73c3.24-1.03,6.71.76,7.75,3.99"/>
      <path id="path3590-1" class="cls-1" d="M110.29,94.97c.98,3.26-.85,6.69-4.1,7.69s-6.7-.82-7.71-4.07c-1.01-3.25.79-6.7,4.03-7.73,3.24-1.03,6.71.76,7.75,3.99"/>
    </g>
    <g>
      <path class="cls-1" d="M40.39,35.23l-23.55,40.8c-.99,1.71.25,3.84,2.22,3.84h47.11c1.97,0,3.21-2.14,2.22-3.84l-23.55-40.8c-.99-1.71-3.45-1.71-4.44,0Z"/>
      <path class="cls-1" d="M67.15,35.23l-9.81,17,16.56,27.64h19.03c1.97,0,3.21-2.14,2.22-3.84l-23.55-40.8c-.99-1.71-3.45-1.71-4.44,0Z"/>
      <circle class="cls-2" cx="87.46" cy="24.14" r="6.85"/>
    </g>
    <g>
      <path class="cls-1" d="M126.08,32.12h4.57v23.22h-4.57v-23.22Z"/>
      <path class="cls-1" d="M134.88,55.34v-24.17h.03l12.9,18.3-1.96-.44,12.87-17.86h.06v24.17h-4.57v-13.85l.28,2.37-7.86,11.17h-.06l-8.08-11.17.79-2.18v13.66h-4.42Z"/>
      <path class="cls-1" d="M160.4,55.34l10.47-24.14h.25l10.47,24.14h-5.3l-6.69-16.97,3.31-2.27-8.01,19.25h-4.51ZM167.57,46.95h6.97l1.61,3.85h-10l1.42-3.85Z"/>
      <path class="cls-1" d="M201.1,53.01c-.27.29-.71.59-1.29.9-.59.31-1.27.58-2.04.84-.77.25-1.55.46-2.35.62s-1.56.24-2.27.24c-1.89,0-3.6-.28-5.11-.84-1.51-.56-2.81-1.34-3.88-2.33-1.07-1-1.89-2.18-2.46-3.55-.57-1.37-.85-2.86-.85-4.48,0-2.12.32-3.97.96-5.54.64-1.57,1.51-2.87,2.62-3.91,1.1-1.04,2.38-1.81,3.82-2.32,1.44-.5,2.95-.76,4.53-.76,1.49,0,2.86.16,4.1.49,1.24.33,2.29.73,3.15,1.21l-1.48,4.26c-.38-.21-.88-.42-1.51-.63-.63-.21-1.27-.38-1.92-.52s-1.23-.21-1.73-.21c-1.26,0-2.38.16-3.34.47s-1.78.79-2.44,1.42c-.66.63-1.16,1.41-1.5,2.35-.34.94-.5,2.02-.5,3.27,0,1.09.19,2.08.57,2.95.38.87.91,1.61,1.59,2.22.68.61,1.49,1.07,2.43,1.39.94.32,1.97.47,3.11.47.65,0,1.25-.05,1.8-.14.55-.09,1.01-.25,1.39-.46v-2.81h-4.01v-4.42h8.64v9.81Z"/>
      <path class="cls-1" d="M204.54,32.12h15.84v4.42h-11.26v4.95h9.97v4.42h-9.97v5.02h11.71v4.42h-16.28v-23.22Z"/>
      <path class="cls-1" d="M236.19,37.74c-.88-.48-1.78-.88-2.7-1.2s-1.77-.47-2.57-.47c-.99,0-1.77.2-2.33.6-.57.4-.85,1-.85,1.8,0,.55.22,1.04.65,1.47.43.43.99.82,1.67,1.15.68.34,1.39.64,2.13.92.67.25,1.34.55,2,.9.66.35,1.26.78,1.78,1.29.53.52.95,1.16,1.26,1.92.32.77.47,1.71.47,2.82,0,1.18-.31,2.27-.92,3.28-.61,1.01-1.5,1.83-2.68,2.45-1.18.62-2.63.93-4.35.93-.88,0-1.78-.09-2.7-.27-.92-.18-1.81-.45-2.7-.82-.88-.37-1.73-.84-2.56-1.4l2.02-3.56c.55.4,1.14.75,1.78,1.06.64.31,1.29.54,1.94.71.65.17,1.25.25,1.8.25s1.1-.08,1.66-.24c.56-.16,1.02-.43,1.39-.8.37-.38.55-.9.55-1.58,0-.46-.15-.88-.46-1.26-.31-.38-.72-.73-1.23-1.04-.52-.32-1.08-.59-1.69-.82-.72-.27-1.45-.59-2.21-.95-.76-.36-1.47-.79-2.13-1.31-.66-.52-1.2-1.16-1.61-1.92-.41-.77-.62-1.71-.62-2.82,0-1.35.3-2.51.9-3.5.6-.99,1.45-1.77,2.54-2.35,1.09-.58,2.36-.9,3.79-.96,1.87,0,3.39.22,4.56.66,1.17.44,2.21.97,3.14,1.58l-1.74,3.5Z"/>
    </g>
  </g>
</svg>