<?xml version="1.0" encoding="UTF-8"?>
<svg id="Camada_2" data-name="Camada 2" xmlns="http://www.w3.org/2000/svg" viewBox="0 0 218.83 104.32">
  <defs>
    <style>
      .cls-1 {
        fill: #fff;
      }

      .cls-2 {
        fill: #fcfdfe;
      }
    </style>
  </defs>
  <g id="Camada_1-2" data-name="Camada 1">
    <g id="rect2317">
      <path class="cls-2" d="M89.04,7c8.79,0,15.94,7.15,15.94,15.95v38.11c0,8.79-7.15,15.95-15.94,15.95H22.94c-8.79,0-15.94-7.15-15.94-15.95V22.95c0-8.79,7.15-15.95,15.94-15.95h66.1M89.04,0H22.94C10.27,0,0,10.27,0,22.95v38.11c0,12.67,10.27,22.95,22.94,22.95h66.1c12.67,0,22.94-10.27,22.94-22.95V22.95c0-12.67-10.27-22.95-22.94-22.95h0Z"/>
    </g>
    <rect id="rect3536" class="cls-1" x=".19" y="89.19" width="15.14" height="15.14" rx="2.41" ry="2.41"/>
    <g id="g9193">
      <path id="path3590" class="cls-1" d="M94.96,94.97c.98,3.26-.85,6.69-4.1,7.69s-6.7-.82-7.71-4.07.79-6.7,4.03-7.73c3.24-1.03,6.71.76,7.75,3.99"/>
      <path id="path3590-1" class="cls-1" d="M110.29,94.97c.98,3.26-.85,6.69-4.1,7.69s-6.7-.82-7.71-4.07c-1.01-3.25.79-6.7,4.03-7.73,3.24-1.03,6.71.76,7.75,3.99"/>
    </g>
    <path class="cls-1" d="M75.23,4.59h-12.87v49.05c-2.32-1.39-4.85-2.3-7.5-2.3-11.25,0-20.38,7.31-20.38,16.33s9.12,16.33,20.38,16.33,20.38-7.31,20.38-16.33V26.39h21.8V4.59h-21.8Z"/>
    <g>
      <path class="cls-1" d="M125.76,55.24v-24.17h.03l12.9,18.3-1.96-.44,12.87-17.86h.06v24.17h-4.57v-13.85l.28,2.37-7.86,11.17h-.06l-8.08-11.17.79-2.18v13.66h-4.42Z"/>
      <path class="cls-1" d="M158.01,46.66c0,.74.22,1.44.66,2.11.44.67,1.03,1.22,1.75,1.64.73.42,1.52.63,2.38.63.95,0,1.79-.21,2.52-.63.74-.42,1.32-.97,1.75-1.64.43-.67.65-1.38.65-2.11v-14.64h4.51v14.73c0,1.7-.42,3.21-1.26,4.53-.84,1.31-1.98,2.35-3.41,3.09-1.43.75-3.02,1.12-4.76,1.12s-3.3-.37-4.72-1.12c-1.42-.75-2.55-1.78-3.39-3.09-.84-1.31-1.26-2.82-1.26-4.53v-14.73h4.57v14.64Z"/>
      <path class="cls-1" d="M188.39,37.64c-.88-.48-1.78-.88-2.7-1.2s-1.77-.47-2.57-.47c-.99,0-1.77.2-2.33.6-.57.4-.85,1-.85,1.8,0,.55.22,1.04.65,1.47.43.43.99.82,1.67,1.15.68.34,1.39.64,2.13.92.67.25,1.34.55,2,.9.66.35,1.26.78,1.78,1.29.53.52.95,1.16,1.26,1.92.32.77.47,1.71.47,2.82,0,1.18-.31,2.27-.92,3.28-.61,1.01-1.5,1.83-2.68,2.45-1.18.62-2.63.93-4.35.93-.88,0-1.78-.09-2.7-.27-.92-.18-1.81-.45-2.7-.82-.88-.37-1.73-.84-2.56-1.4l2.02-3.56c.55.4,1.14.75,1.78,1.06.64.31,1.29.54,1.94.71.65.17,1.25.25,1.8.25s1.1-.08,1.66-.24c.56-.16,1.02-.43,1.39-.8.37-.38.55-.9.55-1.58,0-.46-.15-.88-.46-1.26-.31-.38-.72-.73-1.23-1.04-.52-.32-1.08-.59-1.69-.82-.72-.27-1.45-.59-2.21-.95-.76-.36-1.47-.79-2.13-1.31-.66-.52-1.2-1.16-1.61-1.92-.41-.77-.62-1.71-.62-2.82,0-1.35.3-2.51.9-3.5.6-.99,1.45-1.77,2.54-2.35,1.09-.58,2.36-.9,3.79-.96,1.87,0,3.39.22,4.56.66,1.17.44,2.21.97,3.14,1.58l-1.74,3.5Z"/>
      <path class="cls-1" d="M192.62,32.02h4.57v23.22h-4.57v-23.22Z"/>
      <path class="cls-1" d="M218.83,53.32c-.25.21-.72.49-1.4.85-.68.36-1.52.67-2.51.95-.99.27-2.08.4-3.28.38-1.83-.04-3.47-.37-4.91-.99-1.44-.62-2.66-1.47-3.66-2.54-1-1.07-1.76-2.3-2.29-3.69-.53-1.39-.79-2.87-.79-4.45,0-1.77.27-3.39.8-4.86.54-1.47,1.3-2.74,2.3-3.82s2.19-1.9,3.58-2.49c1.39-.59,2.92-.88,4.61-.88,1.56,0,2.93.21,4.13.63,1.2.42,2.18.87,2.93,1.36l-1.8,4.32c-.53-.4-1.23-.81-2.1-1.25-.87-.43-1.88-.65-3.01-.65-.88,0-1.73.18-2.54.55-.81.37-1.52.89-2.15,1.56-.62.67-1.11,1.46-1.47,2.35-.36.89-.54,1.87-.54,2.92,0,1.11.16,2.13.49,3.06.33.93.79,1.72,1.4,2.38.61.66,1.34,1.17,2.19,1.53.85.36,1.81.54,2.89.54,1.24,0,2.3-.2,3.19-.6.88-.4,1.56-.82,2.02-1.26l1.89,4.1Z"/>
    </g>
  </g>
</svg>