<?xml version="1.0" encoding="UTF-8"?>
<svg id="Camada_2" data-name="Camada 2" xmlns="http://www.w3.org/2000/svg" viewBox="0 0 111.98 137.16">
  <defs>
    <style>
      .cls-1 {
        fill: #EDB651;
      }

      .cls-2 {
        fill: #EDB651;
      }
    </style>
  </defs>
  <g id="Camada_1-2" data-name="Camada 1">
    <g>
      <path class="cls-1" d="M6.71,136.89v-25.59h.03l13.67,19.38-2.07-.47,13.63-18.91h.07v25.59h-4.84v-14.67l.3,2.51-8.32,11.83h-.07l-8.55-11.83.84-2.31v14.47h-4.68Z"/>
      <path class="cls-1" d="M40.85,127.8c0,.78.23,1.53.7,2.24.47.71,1.09,1.29,1.85,1.74.77.45,1.61.67,2.52.67,1,0,1.89-.22,2.67-.67.78-.45,1.4-1.02,1.85-1.74.46-.71.68-1.46.68-2.24v-15.5h4.78v15.6c0,1.8-.45,3.4-1.34,4.79-.89,1.39-2.09,2.48-3.61,3.27-1.52.79-3.2,1.19-5.04,1.19s-3.49-.4-5-1.19c-1.5-.79-2.7-1.88-3.59-3.27-.89-1.39-1.34-2.99-1.34-4.79v-15.6h4.84v15.5Z"/>
      <path class="cls-1" d="M73.03,118.25c-.94-.51-1.89-.94-2.86-1.27s-1.88-.5-2.72-.5c-1.05,0-1.87.21-2.47.63-.6.42-.9,1.06-.9,1.9,0,.58.23,1.1.69,1.55.46.46,1.05.86,1.77,1.22.72.36,1.48.68,2.26.97.71.27,1.42.58,2.12.95.7.37,1.33.82,1.89,1.37.56.55,1,1.22,1.34,2.04.33.81.5,1.81.5,2.99,0,1.25-.32,2.41-.97,3.47-.65,1.07-1.59,1.93-2.84,2.59-1.25.66-2.78.99-4.61.99-.94,0-1.89-.1-2.86-.28-.97-.19-1.92-.48-2.86-.87-.94-.39-1.84-.89-2.71-1.49l2.14-3.78c.58.42,1.21.8,1.89,1.12.68.32,1.36.57,2.05.75.69.18,1.33.27,1.9.27s1.16-.08,1.75-.25c.59-.17,1.08-.45,1.47-.85.39-.4.58-.96.58-1.67,0-.49-.16-.94-.48-1.34-.32-.4-.76-.77-1.3-1.1-.55-.33-1.14-.62-1.79-.87-.76-.29-1.54-.62-2.34-1-.8-.38-1.55-.84-2.26-1.39-.7-.55-1.27-1.22-1.7-2.04-.43-.81-.65-1.81-.65-2.99,0-1.43.32-2.66.95-3.71.63-1.05,1.53-1.88,2.69-2.49,1.16-.61,2.49-.95,4.01-1.02,1.98,0,3.59.23,4.83.7,1.24.47,2.34,1.02,3.32,1.67l-1.84,3.71Z"/>
      <path class="cls-1" d="M77.51,112.3h4.84v24.59h-4.84v-24.59Z"/>
      <path class="cls-1" d="M105.27,134.85c-.27.22-.76.52-1.49.9-.72.38-1.61.71-2.66,1-1.05.29-2.2.42-3.47.4-1.94-.04-3.67-.4-5.2-1.05-1.53-.66-2.82-1.55-3.88-2.69-1.06-1.14-1.87-2.44-2.42-3.91-.56-1.47-.84-3.04-.84-4.71,0-1.87.28-3.59.85-5.15.57-1.56,1.38-2.91,2.44-4.04s2.32-2.02,3.79-2.64c1.47-.62,3.1-.94,4.88-.94,1.65,0,3.11.22,4.38.67,1.27.45,2.31.92,3.11,1.44l-1.9,4.58c-.56-.42-1.3-.86-2.22-1.32-.92-.46-1.99-.69-3.19-.69-.94,0-1.83.2-2.69.58-.86.39-1.61.94-2.27,1.65-.66.71-1.17,1.54-1.55,2.49-.38.95-.57,1.98-.57,3.09,0,1.18.17,2.26.52,3.24.34.98.84,1.82,1.49,2.52.65.7,1.42,1.24,2.32,1.62.9.38,1.92.57,3.06.57,1.31,0,2.44-.21,3.37-.63.94-.42,1.65-.87,2.14-1.34l2,4.34Z"/>
    </g>
    <g>
      <rect id="rect3536" class="cls-1" x=".19" y="89.19" width="15.14" height="15.14" rx="2.41" ry="2.41"/>
      <g id="g9193">
        <path id="path3590" class="cls-1" d="M94.96,94.97c.98,3.26-.85,6.69-4.1,7.69s-6.7-.82-7.71-4.07.79-6.7,4.03-7.73c3.24-1.03,6.71.76,7.75,3.99"/>
        <path id="path3590-1" class="cls-1" d="M110.29,94.97c.98,3.26-.85,6.69-4.1,7.69s-6.7-.82-7.71-4.07c-1.01-3.25.79-6.7,4.03-7.73,3.24-1.03,6.71.76,7.75,3.99"/>
      </g>
      <g id="rect2317">
        <path class="cls-2" d="M89.04,7c8.79,0,15.94,7.15,15.94,15.95v38.11c0,8.79-7.15,15.95-15.94,15.95H22.94c-8.79,0-15.94-7.15-15.94-15.95V22.95c0-8.79,7.15-15.95,15.94-15.95h66.1M89.04,0H22.94C10.27,0,0,10.27,0,22.95v38.11c0,12.67,10.27,22.95,22.94,22.95h66.1c12.67,0,22.94-10.27,22.94-22.95V22.95c0-12.67-10.27-22.95-22.94-22.95h0Z"/>
      </g>
      <path class="cls-1" d="M75.23,4.59h-12.87v49.05c-2.32-1.39-4.85-2.3-7.5-2.3-11.25,0-20.38,7.31-20.38,16.33s9.12,16.33,20.38,16.33,20.38-7.31,20.38-16.33V26.39h21.8V4.59h-21.8Z"/>
    </g>
  </g>
</svg>
